<?xml version="1.0" encoding="UTF-8"?>
<svg width="273px" height="315px" viewBox="0 0 273 315" version="1.1" xmlns="http://www.w3.org/2000/svg" xmlns:xlink="http://www.w3.org/1999/xlink">
    <g id="Page-1" stroke="none" stroke-width="1" fill="none" fill-rule="evenodd">
        <g id="Artboard" transform="translate(-97.000000, -72.000000)">
            <g id="shape" transform="translate(98.000000, 72.000000)">
                <path d="M50.3427496,35.9181219 C65.7002645,61.4088412 63.416169,80.2803015 56.8359765,98.4467004 C50.255784,116.613099 -17.0279974,223.289509 4.1143096,310.489895" id="Path" stroke="#000000" stroke-width="1.2" stroke-linecap="round"></path>
                <path d="M259.001489,312.256001 C288.283674,219.971298 265.338845,138.346148 190.167004,67.3805518 C187.316992,44.7196049 188.590861,22.5328601 193.988609,0.8203176" id="Path-2" stroke="#000000" stroke-width="1.2" stroke-linecap="round"></path>
                <path d="M82.6621776,312.196324 C106.268367,286.281301 118.071461,268.346015 118.071461,258.390465" id="Path-3" stroke="#000000" stroke-width="1.2" stroke-linecap="round"></path>
                <path d="" id="Path-4" stroke="#979797"></path>
                <path d="M105.652518,264.210351 C138.032391,251.210898 150.45022,224.160508 142.906006,183.059181 C134.632864,137.432303 111.445162,114.001281 73.3428999,112.766116" id="Path-5" stroke="#000000" stroke-width="1.2" stroke-linecap="round"></path>
                <path d="M142.126185,268.11013 C206.071694,266.010103 232.876378,237.122381 222.540239,181.446964 C212.362377,125.808089 189.970931,99.2686843 155.3659,101.828751" id="Path-5" stroke="#000000" stroke-width="1.2" stroke-linecap="round" transform="translate(183.411901, 184.884981) scale(-1, 1) rotate(19.000000) translate(-183.411901, -184.884981) "></path>
                <path d="M160.27438,237.237456 C149.578388,271.735167 146.90439,297.378675 152.252386,314.167979" id="Path-6" stroke="#000000" stroke-width="1.2" stroke-linecap="round"></path>
                <path d="M121.897021,17.2589886 C121.853046,53.0724933 124.020512,74.5279475 128.399421,81.6253512" id="Path-7" stroke="#000000" stroke-width="1.2" stroke-linecap="round"></path>
                <ellipse id="Oval-2" fill="#000000" cx="119.5" cy="220" rx="2.5" ry="4"></ellipse>
                <path d="M58.4761198,94.7264982 C102.685751,105.484519 130.805284,134.211181 142.834719,180.906483 C140.648723,124.23106 161.045853,91.4334932 204.026108,82.5137825 C202.912417,80.4950857 198.279058,75.2651555 190.126029,66.8239918 C160.491859,70.3387541 164.523057,88.261019 132.274836,92.3065419 C100.026615,96.3520648 77.321762,78.4798619 61.6853996,82.5137825 C60.4103994,87.9131414 59.3406394,91.9840466 58.4761198,94.7264982 Z" id="Path-8" fill="#000000"></path>
                <path d="M155.033123,226.668255 C152.938326,228.759558 150.328906,230 147.5,230 C145.380293,230 143.383816,229.303547 141.634736,228.074539 C144.552516,219.166036 145.597645,208.939405 144.770122,197.394648 C145.088689,197.300975 145.411839,197.223351 145.739059,197.162451 C147.676464,208.643052 150.774485,218.47832 155.033123,226.668255 Z" id="Combined-Shape" fill="#000000"></path>
            </g>
        </g>
    </g>
</svg>