<?xml version="1.0" encoding="UTF-8"?>
<svg width="426px" height="307px" viewBox="0 0 426 307" version="1.1" xmlns="http://www.w3.org/2000/svg" xmlns:xlink="http://www.w3.org/1999/xlink">
    <!-- Generator: Sketch 51.2 (57519) - http://www.bohemiancoding.com/sketch -->
    <title>Group</title>
    <desc>Created with Sketch.</desc>
    <defs></defs>
    <g id="Page-1" stroke="none" stroke-width="1" fill="none" fill-rule="evenodd">
        <g id="Artboard" transform="translate(-24.000000, -85.000000)">
            <g id="Group" transform="translate(24.000000, 80.000000)">
                <path d="M139.463393,5.9075842 C94.0187198,0.590307238 67.5400223,8.49912704 60.027301,29.6340436 C48.758219,61.3364185 75.1558955,111.375035 63.7150159,161.862568 C52.2741362,212.350101 69.9337734,272.540619 64.9440501,299.854519" id="Path-9" stroke="#000000" stroke-width="1.4" stroke-linecap="round" transform="translate(98.312748, 152.079414) rotate(6.000000) translate(-98.312748, -152.079414) "></path>
                <path d="M362.440443,9.70383268 C317.542671,2.09366776 291.337424,8.85604358 283.824702,29.9909602 C272.55562,61.693335 289.398652,138.747169 279.635786,160.600471 C269.87292,182.453774 292.786084,264.555909 272.753199,301.287453" id="Path-9" stroke="#000000" stroke-width="1.4" transform="translate(317.596821, 153.984568) scale(-1, 1) rotate(7.000000) translate(-317.596821, -153.984568) "></path>
                <path d="M79.1848244,169.581077 C87.2259585,174.276927 82.4999818,168.646257 91.549251,173.548044" id="Path-11" stroke="#000000" stroke-width="1.4" stroke-linecap="round"></path>
                <path d="M336.184824,169.581077 C344.225959,174.276927 339.499982,168.646257 348.549251,173.548044" id="Path-11" stroke="#000000" stroke-width="1.4" stroke-linecap="round" transform="translate(342.367038, 171.564561) scale(-1, 1) translate(-342.367038, -171.564561) "></path>
                <path d="M153.351738,32.6462481 C134.793887,81.2949795 128.773271,112.654217 135.28989,126.72396 C139.847045,136.563112 147.837368,144.173417 159.260859,149.554876 C173.051638,156.051534 191.845927,159.299862 215.643729,159.299862 C244.603181,159.299862 265.634091,154.48962 278.736459,144.869135 C284.720882,140.47504 289.051294,135.077457 291.727696,128.676387 C297.610098,114.607622 288.45627,82.5975754 264.266213,32.6462481 L272.902641,32.6462481 C308.15793,79.7762213 325.785574,117.690488 325.785574,146.389049 C325.785574,160.02124 314.483454,192.209418 289.572117,196.863164 C283.625026,215.629411 278.54767,234.976174 272.877469,250.82594 C265.54928,271.310239 257.230856,285.953476 244.764908,285.953476 C190.044814,285.953476 245.944176,285.585323 184.633812,285.953476 C162.557105,285.877466 155.760703,229.802017 140.556401,196.863164 C114.405843,190.663802 105.501884,170.142484 105.501884,146.389049 C105.501884,123.997716 118.621803,86.0834493 144.861642,32.6462481 L153.351738,32.6462481 Z" id="Path-12" fill="#000000"></path>
                <path d="M215.5,297 C237.315248,297 251.50728,274.166522 251.50728,246 C251.50728,217.833478 237.315248,182.997646 215.5,182.997646 C193.684752,182.997646 180.152937,217.833478 180.152937,246 C180.152937,274.166522 193.684752,297 215.5,297 Z" id="Oval"></path>
                <path d="M178.920075,186.201675 C194.660926,172.660659 206.258544,147.769487 206.258544,113.536936" id="Path-10" stroke="#000000" stroke-width="1.4" stroke-linecap="round" transform="translate(192.589310, 149.869306) rotate(5.000000) translate(-192.589310, -149.869306) "></path>
                <path d="M218.738718,179.13527 C234.479569,165.594254 242.374878,148.048765 242.374878,113.816214" id="Path-10" stroke="#000000" stroke-width="1.4" stroke-linecap="round" transform="translate(230.556798, 146.475742) scale(-1, 1) rotate(5.000000) translate(-230.556798, -146.475742) "></path>
                <path d="M203,75 C207.104424,75.6713706 209.156636,78.3446006 209.156636,83.01969" id="Path-13" stroke="#000000" stroke-width="1.4" stroke-linecap="round"></path>
                <path d="M218,75 C222.104424,75.6713706 224.156636,78.3446006 224.156636,83.01969" id="Path-13" stroke="#000000" stroke-width="1.4" stroke-linecap="round" transform="translate(221.078318, 79.009845) scale(-1, 1) translate(-221.078318, -79.009845) "></path>
                <path d="M350.362516,284.404304 L350.362516,286.404304 L74.3625161,286.404304 L74.3625161,284.404304 L350.362516,284.404304 Z M412.362516,284.404304 L425.144831,284.404304 L425.144831,286.404304 L412.362516,286.404304 L412.362516,284.404304 Z M16.3625161,284.404304 L16.3625161,286.404304 L0.362516097,286.404304 L0.362516097,284.404304 L16.3625161,284.404304 Z" id="dash" fill="#000000"></path>
                <path d="M144.647088,203.34072 C127.04559,241.291143 121.046763,268.74277 126.650608,285.695601" id="Path-15" stroke="#000000" stroke-width="2"></path>
                <path d="M304.966117,207.87704 C287.215289,242.950572 281.141797,268.963754 286.745641,285.916586" id="Path-15" stroke="#000000" stroke-width="2" transform="translate(294.847417, 246.896813) scale(-1, 1) translate(-294.847417, -246.896813) "></path>
                <ellipse id="Oval-4" fill="#000000" cx="245.5" cy="141" rx="1.5" ry="3"></ellipse>
                <path d="M103.67109,71.7621248 C103.67109,75.6487066 101.498047,75.9077246 105.547475,99.9550873 C109.596904,124.00245 115.677969,113.817013 115.677969,141.740184" id="Path-16" stroke="#000000" stroke-width="1.4" transform="translate(109.383363, 106.751155) rotate(2.000000) translate(-109.383363, -106.751155) "></path>
                <path d="M324.196721,69.8962137 C324.196721,86.6420447 316.371735,82.6028216 320.078929,104.208955 C323.786123,125.815088 317.003439,127.548555 317.003439,155.471726" id="Path-16" stroke="#000000" stroke-width="1.4" stroke-linecap="round" transform="translate(320.600080, 112.683970) scale(-1, 1) rotate(-1.000000) translate(-320.600080, -112.683970) "></path>
                <path d="M85.6805853,291.726754 C88.5593675,240.331796 91.3694106,208.08711 94.1107145,194.992697 C97.8298082,177.227665 94.6757113,149.813834 93.9101802,142.858585" id="Path-17" stroke="#000000" stroke-width="1.4" stroke-linecap="round" transform="translate(90.783961, 217.292669) rotate(10.000000) translate(-90.783961, -217.292669) "></path>
                <path d="M324.96746,287.527436 C329.90039,235.255456 334.342662,205.204503 338.294277,197.374578 C342.703473,188.63798 342.705722,176.537391 341.940191,169.582142" id="Path-17" stroke="#000000" stroke-width="1.4" transform="translate(333.645639, 228.554789) scale(-1, 1) rotate(8.000000) translate(-333.645639, -228.554789) "></path>
                <g id="right-hand" transform="translate(10.000000, 276.000000)" stroke="#000000" stroke-width="1.4">
                    <path d="M59.7789906,24.1093183 C44.1203209,33.1887747 28.4616512,35.3406879 12.8029815,30.565058" id="Path-18"></path>
                    <path d="M0,17.9386337 C6.7427057,17.0125578 9.03242296,14.3663465 6.86915179,10" id="Path-19" stroke-linecap="round"></path>
                    <path d="M7.1290698,6.12075384 C7.22552554,4.56213515 8.66064465,3.42467163 11.4344271,2.70836327 C15.5951008,1.63390074 14.4213573,3.84751901 17.3687076,3.84751901 C20.3160579,3.84751901 21.996136,1.48061785 23.2884528,1.60415009 C24.5807696,1.72768232 26.7034782,2.45179624 29.5982287,2.70836327 C32.4929792,2.9649303 32.1985486,0.710228832 34.3847046,0.710228832 C35.8421419,0.710228832 37.5298523,1.00820258 39.4478358,1.60415009" id="Path-20"></path>
                </g>
                <g id="left-hand" transform="translate(389.500000, 294.000000) scale(-1, 1) translate(-389.500000, -294.000000) translate(360.000000, 275.000000)" stroke="#000000" stroke-width="1.4">
                    <path d="M58,25 C47.5561901,36.5013145 34.2228568,38.983522 18,32.4466227" id="Path-18" transform="translate(38.000000, 30.500000) rotate(3.000000) translate(-38.000000, -30.500000) "></path>
                    <path d="M0,19 C7.04443371,18.0667654 9.43661308,15.4000988 7.17653811,11" id="Path-19" stroke-linecap="round"></path>
                    <path d="M6.54349039,10 C4.89566444,4.38325008 6.99491074,2.04096968 12.8412293,2.97315881 C21.6107071,4.37144249 15.935221,4.02922635 18.9780114,4.18823037 C22.0208018,4.3472344 22.6924691,1.63407076 23.9723395,1.75605891 C25.25221,1.87804706 27.8715803,3.2804963 30.7384513,3.53385638 C33.6053223,3.78721645 33.4053706,1 35.5704716,1 C37.0138723,1 38.8237151,1.91225471 41,3.73676413" id="Path-20" stroke-linecap="round" transform="translate(23.500000, 5.500000) rotate(-3.000000) translate(-23.500000, -5.500000) "></path>
                </g>
                <path d="M146.67072,34.2393504 C148.77013,19.2206875 148.77013,11.0556811 146.67072,9.744331 C143.521605,7.77730593 149.864968,6.52513833 151.509987,9.744331 C152.39504,17.7850319 153.808385,31.1539947 149.366925,34.2393504 C146.405952,36.2962542 145.507217,36.2962542 146.67072,34.2393504 Z" id="Path-22" fill="#000000"></path>
                <path d="M266.67072,37.2393504 C268.77013,22.2206875 268.77013,14.0556811 266.67072,12.744331 C263.521605,10.7773059 269.864968,9.52513833 271.509987,12.744331 C272.39504,20.7850319 273.808385,34.1539947 269.366925,37.2393504 C266.405952,39.2962542 265.507217,39.2962542 266.67072,37.2393504 Z" id="Path-22" fill="#000000" transform="translate(269.125822, 24.776980) scale(-1, 1) translate(-269.125822, -24.776980) "></path>
                <path d="M146.412495,32.092175 L151.587036,32.092175" id="Path-23" stroke="#FFFFFF" fill="#FFFFFF"></path>
                <path d="M266.412495,32.092175 L271.587036,32.092175" id="Path-23" stroke="#FFFFFF" fill="#FFFFFF"></path>
                <path d="M216.842434,244.872072 C220.234012,258.556011 220.234012,269.60013 216.842434,278.004427" id="Path-24" stroke="#000000" stroke-width="0.5"></path>
                <path d="M217.5,270.418097 C218.880712,270.418097 219.325706,267.886059 219.325706,266.505347 C219.325706,265.124635 218.880712,262.592597 217.5,262.592597 C216.119288,262.592597 215.629036,265.124635 215.629036,266.505347 C215.629036,267.886059 216.119288,270.418097 217.5,270.418097 Z" id="Oval-6" fill="#000000"></path>
                <path d="M147.418084,234.045461 C154.422821,247.876168 160.002866,254.791521 164.158219,254.791521" id="Path-25" stroke="#000000" stroke-width="1.4"></path>
                <path d="M266.418084,234.045461 C273.422821,247.876168 279.002866,254.791521 283.158219,254.791521" id="Path-25" stroke="#000000" stroke-width="1.4" transform="translate(274.788151, 244.418491) scale(-1, 1) translate(-274.788151, -244.418491) "></path>
            </g>
        </g>
    </g>
</svg>