<?xml version="1.0" encoding="UTF-8"?>
<svg width="319px" height="426px" viewBox="0 0 319 426" version="1.1" xmlns="http://www.w3.org/2000/svg" xmlns:xlink="http://www.w3.org/1999/xlink">
    <!-- Generator: Sketch 51.2 (57519) - http://www.bohemiancoding.com/sketch -->
    <title>Group</title>
    <desc>Created with Sketch.</desc>
    <defs>
        <path d="M84.9144455,287.588871 C111.740269,296.618019 127.279505,306.709206 131.532154,317.862431" id="path-1"></path>
        <filter x="-16.1%" y="-18.2%" width="132.2%" height="149.5%" filterUnits="objectBoundingBox" id="filter-2">
            <feMorphology radius="0.5" operator="dilate" in="SourceAlpha" result="shadowSpreadOuter1"></feMorphology>
            <feOffset dx="0" dy="2" in="shadowSpreadOuter1" result="shadowOffsetOuter1"></feOffset>
            <feMorphology radius="1" operator="erode" in="SourceAlpha" result="shadowInner"></feMorphology>
            <feOffset dx="0" dy="2" in="shadowInner" result="shadowInner"></feOffset>
            <feComposite in="shadowOffsetOuter1" in2="shadowInner" operator="out" result="shadowOffsetOuter1"></feComposite>
            <feGaussianBlur stdDeviation="2" in="shadowOffsetOuter1" result="shadowBlurOuter1"></feGaussianBlur>
            <feColorMatrix values="0 0 0 0 1   0 0 0 0 1   0 0 0 0 1  0 0 0 0.5 0" type="matrix" in="shadowBlurOuter1"></feColorMatrix>
        </filter>
    </defs>
    <g id="Page-1" stroke="none" stroke-width="1" fill="none" fill-rule="evenodd">
        <g id="Body" transform="translate(-74.000000, -60.000000)">
            <g id="Group" transform="translate(69.000000, 61.000000)">
                <path d="M130.418191,313.541369 C144.865072,353.32788 146.725675,388.315371 136,418.503844" id="Path-34" stroke="#000000" stroke-width="1.4" stroke-linecap="round"></path>
                <path d="M150.673574,317.630055 C163.816048,317.630055 205.028491,408.796117 251.471437,423.949346" id="Path-35" stroke="#000000" stroke-width="1.4" stroke-linecap="round"></path>
                <path d="M120.371302,4.3242774 C87.8069759,19.3931698 61.0490492,27.9002793 40.0975217,29.8456057 C19.1459942,31.7909321 9.55692243,48.3428491 11.3303064,79.5013564 C25.4649141,122.892438 31.2909909,154.101966 28.8085367,173.129942 C26.3260825,192.157918 31.7941245,221.421469 45.2126628,260.920596" id="Path-37" stroke="#000000" stroke-width="1.4" stroke-linecap="round" transform="translate(65.747012, 132.622437) rotate(-5.000000) translate(-65.747012, -132.622437) "></path>
                <path d="M60.9777213,235.126125 C31.9454861,305.74393 37.1779682,367.835337 76.6751675,421.400347" id="Path-31" stroke="#000000" stroke-width="1.4" stroke-linecap="round" transform="translate(59.601897, 328.263236) rotate(4.000000) translate(-59.601897, -328.263236) "></path>
                <path d="M253.946489,3.68228905 C221.83904,24.7358639 196.258108,36.207638 177.203694,38.0976113 C148.622072,40.9325713 144.446604,55.508601 141.423293,69.6535591 C138.399983,83.7985172 152.950451,134.632595 154.245104,162.046596 C157.249027,225.654002 157.548074,276.865798 149.993623,285.871542 C164.113884,270.090275 175.091314,259.636267 182.925913,254.509519 C192.184211,203.299509 192.184211,163.595074 182.925913,135.396213" id="Path-37" stroke="#000000" stroke-width="1.4" stroke-linecap="round" transform="translate(197.478722, 144.776916) scale(-1, 1) translate(-197.478722, -144.776916) "></path>
                <path d="M191.672373,252.122359 C231.331536,268.53455 277.540563,319.86482 330.299453,406.113168" id="Path-36" stroke="#000000" stroke-width="1.4" stroke-linecap="round" transform="translate(260.985913, 329.117764) rotate(5.000000) translate(-260.985913, -329.117764) "></path>
                <circle id="Oval-2" stroke="#000000" stroke-width="1.4" cx="75.5" cy="141.5" r="6.5"></circle>
                <path d="M55.0967225,160.33913 C62.1695491,182.772901 75.892362,198.967505 75.7404196,212.921731 C73.7167507,230.082648 65.47666,230.251926 55.7055977,262.935062 C77.2926189,270.437428 108.68328,289.186239 124.905388,309.644365 C135.114195,322.51896 129.078763,316.61576 131.775193,317.861816 C133.059789,318.455445 136.931815,322.863027 140.088701,321.451926 C143.245586,320.040825 144.89875,321.103688 146.879087,321.103688 C148.859425,321.103688 149.678486,318.966893 150.539812,318.333659 C157.764637,313.022068 144.145804,272.112392 201.54533,248.973803 C196.702659,223.553244 186.472381,220.751917 185.984848,210.435122 C184.154159,171.69552 196.702659,180.074809 201.750189,142.470988 C207.439508,100.085873 195.175525,64.9304339 201.54533,33.379995 C200.044988,33.3759357 197.10804,29.9836585 195.430227,32.218468 C180.691636,125.889867 168.334777,153.050782 125.529832,152.254008 C99.2761504,153.963992 90.6881818,137.689018 62.9758734,136.358045 C57.0575709,136.358045 5.63678954,222.01547 16.1468345,229.091629 C16.7733574,226.955725 17.4636749,231.265402 18.2294578,229.091629 C24.152568,212.278118 34.5986127,187.417085 55.0967225,160.33913 Z" id="Path-38" fill="#000000"></path>
                <path d="M214.356872,174.456484 C222.430518,176.972751 228.888286,176.972751 233.730176,174.456484" id="Path-41" stroke="#000000" stroke-width="1.4" stroke-linecap="round"></path>
                <path d="M116.446819,117.339408 C122.170998,124.776753 115.633325,148.654117 107.184864,151.654617" id="Path-40" stroke="#000000" stroke-width="1.4" stroke-linecap="round"></path>
                <path d="M143.446819,115.339408 C149.170998,122.776753 142.633325,146.654117 134.184864,149.654617" id="Path-40" stroke="#000000" stroke-width="1.4" stroke-linecap="round" transform="translate(139.895974, 132.497012) scale(-1, 1) translate(-139.895974, -132.497012) "></path>
                <path d="M72.9262158,78.2288231 C72.9262158,81.889445 70.4929837,87.3155009 65.6265195,94.5069908 C73.9294245,134.562827 61.9247933,157.411157 29.6126259,163.051981" id="Path-39" stroke="#000000" stroke-width="1.4" stroke-linecap="round" transform="translate(51.269421, 120.640402) scale(-1, 1) rotate(7.000000) translate(-51.269421, -120.640402) "></path>
                <path d="M218.307698,79.2288231 C218.307698,84.790303 215.874466,90.216359 211.008001,95.5069908 C220.780593,130.093032 210.982134,151.311816 181.612626,159.163344" id="Path-39" stroke="#000000" stroke-width="1.4" stroke-linecap="round"></path>
                <g id="Path-42" stroke-linecap="round">
                    <use fill="black" fill-opacity="1" filter="url(#filter-2)" xlink:href="#path-1"></use>
                    <use stroke="#000000" stroke-width="1" xlink:href="#path-1"></use>
                </g>
                <path d="M79.4030804,35.8911806 C88.8478044,36.2041774 95.9520651,35.5163495 100.715862,33.8276971 C105.28842,33.3629831 104.921238,40.6492408 112,40.6492408" id="Path-46" stroke="#000000" stroke-width="1.4" stroke-linecap="round"></path>
                <path d="M134.40308,35.8911806 C143.847804,36.2041774 150.952065,35.5163495 155.715862,33.8276971 C160.28842,33.3629831 159.921238,40.6492408 167,40.6492408" id="Path-46" stroke="#000000" stroke-width="1.4" stroke-linecap="round" transform="translate(150.701540, 37.227809) scale(-1, 1) translate(-150.701540, -37.227809) "></path>
                <path d="M129.783206,226 C130.768043,226 131.566412,225.395919 131.566412,222.117697 C131.566412,218.839475 130.768043,218.175481 129.783206,218.175481 C128.798368,218.175481 128,218.839475 128,222.117697 C128,225.395919 128.798368,226 129.783206,226 Z" id="Oval" stroke="#000000"></path>
            </g>
        </g>
    </g>
</svg>