<?xml version="1.0" encoding="UTF-8"?>
<svg width="219px" height="324px" viewBox="0 0 219 324" version="1.1" xmlns="http://www.w3.org/2000/svg" xmlns:xlink="http://www.w3.org/1999/xlink">
    <!-- Generator: Sketch 51.2 (57519) - http://www.bohemiancoding.com/sketch -->
    <title>Group</title>
    <desc>Created with Sketch.</desc>
    <defs></defs>
    <g id="Page-1" stroke="none" stroke-width="1" fill="none" fill-rule="evenodd">
        <g id="Artboard" transform="translate(-124.000000, -91.000000)">
            <g id="Group" transform="translate(113.000000, 92.000000)">
                <path d="M50.4649947,100.130891 C49.6084183,102.495702 35.8325204,117.932174 35.0040115,134.736445 C34.8857475,136.427699 34.4164614,138.423077 33.676955,140.748733 C33.1201712,142.49975 32.4102056,144.437994 31.5815451,146.574628 C21.1993347,173.344319 -1.65350232,180.504319 18.5263077,291.511324" id="Path" stroke="#000000" stroke-width="1.4" stroke-linecap="round" transform="translate(30.468995, 195.821108) rotate(-6.000000) translate(-30.468995, -195.821108) "></path>
                <path d="M229.035193,87.0686169 C225.79112,93.2575662 206.91331,113.358301 200.331583,135.431386 C193.104726,159.668042 158.891234,170.54643 192.233654,321.804123" id="Path" stroke="#000000" stroke-width="1.4" stroke-linecap="round" transform="translate(203.457213, 204.436370) scale(-1, 1) rotate(-8.000000) translate(-203.457213, -204.436370) "></path>
                <path d="M37.3714405,102.709463 C82.7496468,157.359694 104.377816,160.357663 114.322084,203.737219 C115.655892,210.182652 128.262767,210.323378 128.318556,203.737219 C155.067101,148.056711 183.50215,130.557552 202.333361,100.586154 C201.141771,93.6789913 196.955227,75.6400543 192.489291,79.5479551 C180.291302,112.864147 156.480421,131.037001 124.271697,131.037001 C92.0629729,131.037001 53.7243746,114.776343 45.8198255,80.6430204 C45.1630846,77.8070902 33.7067709,99.783024 37.3714405,102.709463 Z" id="Path-27" fill="#000000"></path>
                <path d="M216.779597,139 C217.930151,149.752066 214.88696,160.324307 207.650023,170.716723" id="Path-29" stroke="#000000" stroke-width="1.4"></path>
                <path d="M38.4477187,103 C26.1403503,122.443665 25.4279013,140.040846 36.3103719,155.791542" id="Path-30" stroke="#000000" stroke-width="1.4"></path>
                <path d="M123.526628,84.6266512 C125.183482,84.6266512 125.375355,83.6485948 125.375355,79.7826016 C125.375355,75.9166083 124.889712,75.0766634 123.232858,75.0766634 C121.576004,75.0766634 120.815279,76.0579964 120.815279,79.9239896 C120.815279,83.7899829 121.869774,84.6266512 123.526628,84.6266512 Z" id="Oval-7" stroke="#000000" stroke-width="1.4" transform="translate(123.095317, 79.851657) rotate(2.000000) translate(-123.095317, -79.851657) "></path>
                <path d="M67.8695826,168.302581 C84.0699334,158.77466 99.1818588,156.018553 113.205359,160.034259" id="Path-32" stroke="#000000" stroke-width="1.4" stroke-linecap="round" transform="translate(90.537471, 163.275422) scale(-1, 1) rotate(-32.000000) translate(-90.537471, -163.275422) "></path>
                <path d="M133.869583,169.302581 C150.069933,159.77466 165.181859,157.018553 179.205359,161.034259" id="Path-32" stroke="#000000" stroke-width="1.4" stroke-linecap="round" transform="translate(156.537471, 164.275422) rotate(-32.000000) translate(-156.537471, -164.275422) "></path>
                <path d="M116.113496,206 C112.828866,207.520333 112.828866,218.256882 116.113496,238.209646 C119.398125,258.16241 117.787998,285.892189 111.283115,321.398983" id="Path-33" stroke="#000000" stroke-width="1.4"></path>
                <path d="M126.508928,147.317667 C147.148338,169.482076 158.38577,189.732993 160.221226,208.070416 C160.853672,214.388977 155.920783,219.789109 156.635843,224.524227 C159.321189,255.50269 150.101674,300.121786 146.141575,320.418965" id="Path-26" stroke="#000000" stroke-width="1.4" stroke-linecap="round" transform="translate(143.393157, 233.868316) scale(-1, 1) rotate(-1.000000) translate(-143.393157, -233.868316) "></path>
                <path d="M45.288233,81.2418856 C46.1211097,69.8729851 51.6184693,58.4631533 61.7803116,47.01239 C71.942154,35.5616268 75.1782817,20.2922068 71.4886948,1.20413004" id="Path-28" stroke="#000000" stroke-width="1.4" stroke-linecap="round"></path>
                <path d="M163.288233,81.2418856 C164.12111,69.8729851 169.618469,58.4631533 179.780312,47.01239 C189.942154,35.5616268 195.411923,20.4867655 196.18962,1.7878061" id="Path-28" stroke="#000000" stroke-width="1.4" stroke-linecap="round" transform="translate(179.738926, 41.514846) scale(-1, 1) rotate(-5.000000) translate(-179.738926, -41.514846) "></path>
                <ellipse id="Oval-2" fill="#000000" cx="165.5" cy="177" rx="2.5" ry="4"></ellipse>
            </g>
        </g>
    </g>
</svg>