<?xml version="1.0" encoding="UTF-8"?>
<svg width="251px" height="401px" viewBox="0 0 251 401" version="1.1" xmlns="http://www.w3.org/2000/svg" xmlns:xlink="http://www.w3.org/1999/xlink">
    <!-- Generator: Sketch 51.2 (57519) - http://www.bohemiancoding.com/sketch -->
    <title>body-1</title>
    <desc>Created with Sketch.</desc>
    <defs></defs>
    <g id="Page-1" stroke="none" stroke-width="1" fill="none" fill-rule="evenodd">
        <g id="Body" transform="translate(-85.000000, -54.000000)" stroke="#000000">
            <g id="body-1" transform="translate(85.000000, 50.000000)">
                <path d="M57.3314803,167.025328 C56.5303221,176.182607 57.8461883,186.30924 61.2790788,197.405227 C64.6891145,212.116681 67.0498914,222.275803 68.3614093,227.882595 C34.0082819,294.943411 34.1343549,344.279234 61.2941274,405.74877" id="Path" stroke-linecap="round" transform="translate(55.024121, 286.387049) rotate(-5.000000) translate(-55.024121, -286.387049) "></path>
                <path d="M172.11559,189.81386 C170.670383,197.194717 170.533994,204.004212 171.706423,210.242345 C208.486047,252.775545 244.023554,281.554488 171.168747,397.390717" id="Path-2" stroke-linecap="round" transform="translate(192.233897, 293.602288) rotate(-9.000000) translate(-192.233897, -293.602288) "></path>
                <path d="M160.258453,204.879177 C176.259907,170.54573 184.260634,143.044938 184.260634,122.376802 C184.260634,101.708665 203.841988,79.5070488 243.004696,55.7719518" id="Path-6" stroke-linecap="round" transform="translate(201.631574, 130.325565) rotate(6.000000) translate(-201.631574, -130.325565) "></path>
                <path d="M48.7031572,82.3416314 C52.1376236,93.6608809 29.6226517,114.983701 27.9568266,132.248308 C21.951396,178.743852 90.0016229,180.594604 94.8273563,146.244669 C97.9856594,131.40007 94.5462477,116.502342 84.5091212,101.551483" id="Path-7" stroke-linecap="round" transform="translate(61.771562, 126.098696) rotate(13.000000) translate(-61.771562, -126.098696) "></path>
                <path d="M124.490531,82.7185864 C127.924997,94.0378359 105.410025,115.360656 103.7442,132.625263 C97.7387697,179.120807 168.907324,177.406563 174.344152,146.269661 C177.968704,125.511727 172.527485,111.521333 158.020496,104.298482" id="Path-7" stroke-linecap="round" transform="translate(139.407895, 125.725587) scale(-1, 1) rotate(11.000000) translate(-139.407895, -125.725587) "></path>
                <path d="M127.355897,70.9806179 L131.430659,64.9685902 C142.276017,65.3032342 155.446619,62.8065303 170.942465,57.4784785" id="Path-9" stroke-linecap="round" transform="translate(149.149181, 64.229548) rotate(19.000000) translate(-149.149181, -64.229548) "></path>
                <path d="M63,62.0819558 L67.7388576,54.9097575 C83.8067326,57.0497332 95.3319909,54.7464807 102.314632,48" id="Path-9" stroke-linecap="round" transform="translate(82.657316, 55.040978) scale(-1, 1) translate(-82.657316, -55.040978) "></path>
                <path d="M168.551731,68.0596055 C207.148732,32.2521308 233.399941,15.2462899 247.305358,17.042083" id="Path-8" stroke-linecap="round"></path>
                <path d="M1,65.2140942 C7.71250282,52.7537046 18.1598034,44.2507841 32.3419018,39.7053329 C53.9814269,17.7698113 69.0037802,6.20136704 77.4089617,5" id="Path-8" stroke-linecap="round" transform="translate(39.204481, 35.107047) scale(-1, 1) translate(-39.204481, -35.107047) "></path>
                <path d="M38.4992332,108.077924 C39.4411479,81.3330856 26.7382269,58.5008871 0.390470183,39.5813287" id="Path-10" stroke-linecap="round"></path>
                <path d="M79.9198393,281.400398 C97.7013862,290.127641 115.267396,288.645302 132.617868,276.953383" id="Path-4" stroke-linecap="round" transform="translate(106.268854, 281.974438) rotate(7.000000) translate(-106.268854, -281.974438) "></path>
                <path d="M95.937902,30.7114783 C107.332707,45.843862 115.463632,53.4100538 120.330678,53.4100538 C125.197724,53.4100538 133.328649,45.843862 144.723453,30.7114783 C151.336394,22.2648615 154.642864,13.8175946 154.642864,5.36967736" id="Path-11" stroke-linecap="round" transform="translate(125.290383, 29.389866) rotate(10.000000) translate(-125.290383, -29.389866) "></path>
                <path d="M146.983067,263.021665 C132.744355,275.806032 124.414786,287.526858 121.994362,298.184142 C118.78781,308.851808 116.93004,353.752229 131,401" id="Path-3" stroke-linecap="round"></path>
                <path d="M101.943303,209.829737 C104.100266,224.193088 106.395833,232.798642 108.830003,235.646401" id="Path-12" transform="translate(105.386653, 222.738069) rotate(8.000000) translate(-105.386653, -222.738069) "></path>
                <path d="M104.783206,225 C105.768043,225 106.566412,224.395919 106.566412,221.117697 C106.566412,217.839475 105.768043,217.175481 104.783206,217.175481 C103.798368,217.175481 103,217.839475 103,221.117697 C103,224.395919 103.798368,225 104.783206,225 Z" id="Oval" fill="#979797"></path>
                <path d="M66.8617256,108.023916 C67.1520646,134.940217 78.758071,149.360008 101.679745,151.283287 C133.368452,151.283287 126.23349,123.669495 147.685521,111.527293 C159.531135,112.480504 177.581694,120.143424 176.615455,134.594909 C175.649216,149.046394 164.46831,155.986229 145.486504,159.897952 C114.680996,166.246274 100.800338,150.799232 101.679736,151.283287 C70.5163695,186.244113 21.6418653,140.15862 27.132462,126.655222 C32.0041488,112.501229 45.2472367,106.290794 66.8617256,108.023916 Z" id="Combined-Shape" fill="#000000"></path>
                <path d="M100.5,155.366989 C101.501072,155.366989 104.25254,162.346608 105,161.916427 C106.1082,161.278631 105,152.98421 105,151.5 C105,149.014719 105,147.817111 100.5,147.817111 C96,147.817111 96,149.014719 96,151.5 C96,152.878801 95.0234619,161.264453 96,161.916427 C96.7836668,162.439632 99.3935195,155.366989 100.5,155.366989 Z" id="Oval-2" fill="#000000"></path>
                <path d="M66,109.583289 C92.7189125,77.9552615 101.794033,59.9377988 93.2253625,55.530901" id="Path-15"></path>
                <path d="M148.517272,113.228041 C132.270075,83.9181614 126.854343,65.9006987 132.270075,59.1756534" id="Path-16"></path>
                <path d="M63.3516429,228.203187 C62.3696189,221.521615 88.9601906,290.90008 115.134437,286.857896 C141.308684,282.815712 156.972191,208.222181 158.558796,213.5 C152.451953,243.434683 140.349704,271.352039 122.252051,297.252068 C97.1100791,288.135123 77.4766097,265.118829 63.3516429,228.203187 Z" id="Path-13" fill="#000000"></path>
            </g>
        </g>
    </g>
</svg>